REM DIRINDEX 1\2,1\3,1\4,1\5
REM DIRNAME "folder01","folder02","folder03","folder04","folder05"
TITLE ""
FILE "1Q_t_1689-1700.mp3" MP3
  TRACK 01 AUDIO
    TITLE "3:cjc172_6058"
    INDEX 01 00:00:00
  TRACK 02 AUDIO
    TITLE "0:"
    INDEX 01 00:01:14
  TRACK 03 AUDIO
    TITLE "4:cjc172_6059"
    INDEX 01 00:01:23
  TRACK 04 AUDIO
    TITLE "0:"
    INDEX 01 00:04:55
  TRACK 05 AUDIO
    TITLE "5:cjc172_6060"
    INDEX 01 00:04:69
  TRACK 06 AUDIO
    TITLE "0:"
    INDEX 01 00:09:74
  TRACK 07 AUDIO
    TITLE "3:cjc172_6061"
    INDEX 01 00:10:48
  TRACK 08 AUDIO
    TITLE "0:"
    INDEX 01 00:11:65
  TRACK 09 AUDIO
    TITLE "4:cjc172_6062"
    INDEX 01 00:11:75
  TRACK 10 AUDIO
    TITLE "0:"
    INDEX 01 00:13:25
  TRACK 11 AUDIO
    TITLE "5:cjc172_6063"
    INDEX 01 00:13:34
  TRACK 12 AUDIO
    TITLE "0:"
    INDEX 01 00:17:40
  TRACK 13 AUDIO
    TITLE "3:cjc172_6064"
    INDEX 01 00:18:12
  TRACK 14 AUDIO
    TITLE "0:"
    INDEX 01 00:19:17
  TRACK 15 AUDIO
    TITLE "4:cjc172_6065"
    INDEX 01 00:19:29
  TRACK 16 AUDIO
    TITLE "0:"
    INDEX 01 00:20:46
  TRACK 17 AUDIO
    TITLE "5:cjc172_6066"
    INDEX 01 00:20:54
  TRACK 18 AUDIO
    TITLE "0:"
    INDEX 01 00:24:72
  TRACK 19 AUDIO
    TITLE "3:cjc172_6067"
    INDEX 01 00:25:42
  TRACK 20 AUDIO
    TITLE "0:"
    INDEX 01 00:26:45
  TRACK 21 AUDIO
    TITLE "4:cjc172_6068"
    INDEX 01 00:26:55
  TRACK 22 AUDIO
    TITLE "0:"
    INDEX 01 00:29:24
  TRACK 23 AUDIO
    TITLE "5:cjc172_6069"
    INDEX 01 00:29:34
  TRACK 24 AUDIO
    TITLE "0:"
    INDEX 01 00:34:21
  TRACK 25 AUDIO
    TITLE "3:cjc172_6070"
    INDEX 01 00:34:68
  TRACK 26 AUDIO
    TITLE "0:"
    INDEX 01 00:36:39
  TRACK 27 AUDIO
    TITLE "4:cjc172_6071"
    INDEX 01 00:36:49
  TRACK 28 AUDIO
    TITLE "0:"
    INDEX 01 00:38:01
  TRACK 29 AUDIO
    TITLE "5:cjc172_6072"
    INDEX 01 00:38:11
  TRACK 30 AUDIO
    TITLE "0:"
    INDEX 01 00:42:54
  TRACK 31 AUDIO
    TITLE "3:cjc172_6073"
    INDEX 01 00:43:26
  TRACK 32 AUDIO
    TITLE "0:"
    INDEX 01 00:44:57
  TRACK 33 AUDIO
    TITLE "4:cjc172_6074"
    INDEX 01 00:44:66
  TRACK 34 AUDIO
    TITLE "0:"
    INDEX 01 00:47:20
  TRACK 35 AUDIO
    TITLE "5:cjc172_6075"
    INDEX 01 00:47:27
  TRACK 36 AUDIO
    TITLE "0:"
    INDEX 01 00:51:29
  TRACK 37 AUDIO
    TITLE "3:cjc172_6076"
    INDEX 01 00:52:01
  TRACK 38 AUDIO
    TITLE "0:"
    INDEX 01 00:53:16
  TRACK 39 AUDIO
    TITLE "4:cjc172_6077"
    INDEX 01 00:53:26
  TRACK 40 AUDIO
    TITLE "0:"
    INDEX 01 00:55:51
  TRACK 41 AUDIO
    TITLE "5:cjc172_6078"
    INDEX 01 00:55:58
  TRACK 42 AUDIO
    TITLE "0:"
    INDEX 01 00:59:50
  TRACK 43 AUDIO
    TITLE "3:cjc172_6079"
    INDEX 01 01:00:22
  TRACK 44 AUDIO
    TITLE "0:"
    INDEX 01 01:01:33
  TRACK 45 AUDIO
    TITLE "4:cjc172_6080"
    INDEX 01 01:01:43
  TRACK 46 AUDIO
    TITLE "0:"
    INDEX 01 01:03:27
  TRACK 47 AUDIO
    TITLE "5:cjc172_6081"
    INDEX 01 01:03:32
  TRACK 48 AUDIO
    TITLE "0:"
    INDEX 01 01:08:53
  TRACK 49 AUDIO
    TITLE "3:cjc172_6082"
    INDEX 01 01:09:25
  TRACK 50 AUDIO
    TITLE "0:"
    INDEX 01 01:10:34
  TRACK 51 AUDIO
    TITLE "4:cjc172_6083"
    INDEX 01 01:10:44
  TRACK 52 AUDIO
    TITLE "0:"
    INDEX 01 01:12:22
  TRACK 53 AUDIO
    TITLE "5:cjc172_6084"
    INDEX 01 01:12:33
  TRACK 54 AUDIO
    TITLE "0:"
    INDEX 01 01:17:33
  TRACK 55 AUDIO
    TITLE "3:cjc172_6085"
    INDEX 01 01:18:06
  TRACK 56 AUDIO
    TITLE "0:"
    INDEX 01 01:19:20
  TRACK 57 AUDIO
    TITLE "4:cjc172_6086"
    INDEX 01 01:19:31
  TRACK 58 AUDIO
    TITLE "0:"
    INDEX 01 01:20:58
  TRACK 59 AUDIO
    TITLE "5:cjc172_6087"
    INDEX 01 01:20:68
  TRACK 60 AUDIO
    TITLE "0:"
    INDEX 01 01:25:38
  TRACK 61 AUDIO
    TITLE "3:cjc172_6088"
    INDEX 01 01:26:10
  TRACK 62 AUDIO
    TITLE "0:"
    INDEX 01 01:27:19
  TRACK 63 AUDIO
    TITLE "4:cjc172_6089"
    INDEX 01 01:27:27
  TRACK 64 AUDIO
    TITLE "0:"
    INDEX 01 01:30:33
  TRACK 65 AUDIO
    TITLE "5:cjc172_6090"
    INDEX 01 01:30:43
  TRACK 66 AUDIO
    TITLE "0:"
    INDEX 01 01:35:42
  TRACK 67 AUDIO
    TITLE "2:cjc172_6091"
    INDEX 01 01:36:14
  TRACK 68 AUDIO
    TITLE "0:"
    INDEX 01 01:37:22
  TRACK 69 AUDIO
    TITLE "3:cjc172_6092"
    INDEX 01 01:37:65
  TRACK 70 AUDIO
    TITLE "0:"
    INDEX 01 01:39:24
  TRACK 71 AUDIO
    TITLE "4:cjc172_6093"
    INDEX 01 01:39:34
  TRACK 72 AUDIO
    TITLE "0:"
    INDEX 01 01:40:63
  TRACK 73 AUDIO
    TITLE "5:cjc172_6094"
    INDEX 01 01:40:71
  TRACK 74 AUDIO
    TITLE "0:"
    INDEX 01 01:45:11
